<?xml version="1.0" encoding="UTF-8"?>
<svg width="16px" height="16px" viewBox="0 0 16 16" version="1.1" xmlns="http://www.w3.org/2000/svg" xmlns:xlink="http://www.w3.org/1999/xlink">
    <title>10.图标/应用管理@3x</title>
    <g id="10.图标/应用管理" stroke="none" stroke-width="1" fill="none" fill-rule="evenodd">
        <g id="服务器" transform="translate(-3.000000, -1.000000)" fill-rule="nonzero">
            <rect id="矩形" fill="#000000" opacity="0" x="0" y="0" width="20" height="20"></rect>
            <path d="M16.4,9.6 C16.76,9.6 17,9.84 17,10.2 L17,14.4 C17,14.76 16.76,15 16.4,15 L5.6,15 C5.24,15 5,14.76 5,14.4 L5,10.2 C5,9.84 5.24,9.6 5.6,9.6 L16.4,9.6 Z M15.8,10.8 L6.2,10.8 L6.2,13.8 L15.8,13.8 L15.8,10.8 Z M16.4,3 C16.76,3 17,3.24 17,3.6 L17,7.8 C17,8.16 16.76,8.4 16.4,8.4 L5.6,8.4 C5.24,8.4 5,8.16 5,7.8 L5,3.6 C5,3.24 5.24,3 5.6,3 L16.4,3 Z M15.8,4.2 L6.2,4.2 L6.2,7.2 L15.8,7.2 L15.8,4.2 Z" id="形状" fill="#FFFFFF"></path>
            <path d="M13.3333333,11.7692308 C13.7333333,11.7692308 14,12.0153846 14,12.3846154 C14,12.6923077 13.7333333,12.9384615 13.4,13 L12.6666667,13 C12.2666667,13 12,12.7538462 12,12.3846154 C12,12.0769231 12.2666667,11.8307692 12.6,11.7692308 L13.3333333,11.7692308 Z M13.3333333,5 C13.7333333,5 14,5.24615385 14,5.61538462 C14,5.92307692 13.7333333,6.16923077 13.4,6.23076923 L12.6666667,6.23076923 C12.2666667,6.23076923 12,5.98461538 12,5.61538462 C12,5.30769231 12.2666667,5.06153846 12.6,5 L13.3333333,5 Z" id="形状" fill="#FFFFFF"></path>
        </g>
    </g>
</svg>