<?xml version="1.0" encoding="UTF-8"?>
<svg width="16px" height="16px" viewBox="0 0 16 16" version="1.1" xmlns="http://www.w3.org/2000/svg" xmlns:xlink="http://www.w3.org/1999/xlink">
    <title>图标/首页@3x</title>
    <g id="图标/首页" stroke="none" stroke-width="1" fill="none" fill-rule="evenodd">
        <g transform="translate(0.500000, 1.000000)" fill="#FFFFFF" fill-rule="nonzero" id="编组-3">
            <g id="编组">
                <path d="M6.77144661,0.646446609 C6.94501296,0.472880258 7.21443736,0.453595107 7.4093055,0.588591159 L7.47855339,0.646446609 L13.6035534,6.77144661 C13.7988155,6.96670876 13.7988155,7.28329124 13.6035534,7.47855339 C13.429987,7.65211974 13.1605626,7.67140489 12.9656945,7.53640884 L12.8964466,7.47855339 L7.125,1.707 L1.35355339,7.47855339 C1.17998704,7.65211974 0.910562638,7.67140489 0.715694497,7.53640884 L0.646446609,7.47855339 C0.472880258,7.30498704 0.453595107,7.03556264 0.588591159,6.8406945 L0.646446609,6.77144661 L6.77144661,0.646446609 Z" id="路径-2"></path>
                <path d="M11.5,5.47159091 C11.7454599,5.47159091 11.9496084,5.64846607 11.9919443,5.88171528 L12,5.97159091 L12,12.0965909 C12,12.3420508 11.8231248,12.5461993 11.5898756,12.5885352 L11.5,12.5965909 L8.2843718,12.5965909 C8.03891192,12.5965909 7.83476343,12.4197157 7.79242747,12.1864665 L7.7843718,12.0965909 L7.784,8.715 L6.253,8.715 L6.25389043,12.0965909 C6.25389043,12.3420508 6.07701527,12.5461993 5.84376606,12.5885352 L5.75389043,12.5965909 L2.75,12.5965909 C2.50454011,12.5965909 2.30039163,12.4197157 2.25805567,12.1864665 L2.25,12.0965909 L2.25,5.97159091 C2.25,5.69544853 2.47385763,5.47159091 2.75,5.47159091 C2.99545989,5.47159091 3.19960837,5.64846607 3.24194433,5.88171528 L3.25,5.97159091 L3.25,11.596 L5.253,11.596 L5.25389043,8.21565586 C5.25389043,7.97019597 5.43076559,7.76604749 5.6640148,7.72371153 L5.75389043,7.71565586 L8.2843718,7.71565586 C8.52983169,7.71565586 8.73398017,7.89253102 8.77631613,8.12578023 L8.7843718,8.21565586 L8.784,11.596 L11,11.596 L11,5.97159091 C11,5.72613102 11.1768752,5.52198254 11.4101244,5.47964658 L11.5,5.47159091 Z" id="路径-3"></path>
            </g>
        </g>
    </g>
</svg>

