<?xml version="1.0" encoding="UTF-8"?>
<svg width="16px" height="16px" viewBox="0 0 16 16" version="1.1" xmlns="http://www.w3.org/2000/svg" xmlns:xlink="http://www.w3.org/1999/xlink">
    <title>10.图标/AI能力库@3x</title>
    <g id="10.图标/AI能力库" stroke="none" stroke-width="1" fill="none" fill-rule="evenodd">
        <g id="账户" fill="#000000" fill-rule="nonzero" opacity="0">
            <rect id="矩形" x="0" y="0" width="16" height="16"></rect>
        </g>
        <g id="技术服务" transform="translate(2.000000, 0.000000)" fill="#FFFFFF" fill-rule="nonzero">
            <g id="编组">
                <path d="M4.42112059,5.05179055 C4.30945343,4.97969326 4.16909017,4.94873627 4.03090911,4.96572976 C3.89272805,4.98272326 3.76804827,5.04627522 3.6842979,5.14240495 L2.10539214,6.9546928 C1.96486929,7.11573461 1.96486929,7.33733735 2.10539214,7.49837916 L3.6842979,9.31066702 C3.85869902,9.5108468 4.18858577,9.55141624 4.42112058,9.4012814 C4.6536554,9.25114656 4.70078208,8.96716045 4.52638098,8.76698066 L3.18431108,7.22653598 L4.52638098,5.6860913 C4.61013135,5.58996158 4.64609191,5.46912854 4.62635176,5.35017407 C4.60661161,5.23121961 4.53278775,5.12388785 4.42112059,5.05179055 L4.42112059,5.05179055 Z M9.57887941,9.40128141 C9.81141423,9.55141625 10.141301,9.51084681 10.3157021,9.31066702 L11.8946079,7.49837916 C12.0351307,7.33733735 12.0351307,7.11573461 11.8946079,6.9546928 L10.3157021,5.14240495 C10.141301,4.94222517 9.81141423,4.90165573 9.57887942,5.05179057 C9.34634461,5.20192541 9.29921793,5.48591151 9.47361902,5.6860913 L10.8156889,7.22653598 L9.47361902,8.76698066 C9.38986865,8.86311039 9.35390809,8.98394342 9.37364824,9.10289789 C9.39338839,9.22185236 9.46721225,9.32918412 9.57887941,9.40128141 Z M7.01263125,4.86285955 L5.96002741,8.94050722 C5.91532618,9.09976797 5.97398959,9.26739658 6.1134463,9.37889626 C6.252903,9.49039594 6.45142262,9.52839261 6.63262273,9.47826668 C6.81382284,9.42814075 6.94946853,9.29770292 6.98736875,9.13714045 L8.03997259,5.05949278 C8.08467382,4.90023203 8.02601041,4.73260342 7.8865537,4.62110374 C7.747097,4.50960406 7.54857738,4.47160739 7.36737727,4.52173332 C7.18617716,4.57185925 7.05053147,4.70229708 7.01263125,4.86285955 L7.01263125,4.86285955 Z" id="形状"></path>
                <path d="M11.5,9.31393333 C11.2238576,9.31393333 11,9.52286712 11,9.7806 L11,10.7666667 L9.5,10.7666667 C8.67157288,10.7666667 8,11.393468 8,12.1666667 L8,13.5666667 L1.5475,13.5666667 C1.2455,13.5666667 1,13.3249333 1,13.0281333 L1,1.97186667 C1,1.67506667 1.2455,1.43333333 1.5475,1.43333333 L10.452,1.43333333 C10.7545,1.43333333 11,1.67506667 11,1.97186667 L11,3.78673333 C11,4.04446622 11.2238576,4.2534 11.5,4.2534 C11.7761424,4.2534 12,4.04446622 12,3.78673333 L12,1.97186667 C12,1.16033333 11.3055,0.5 10.452,0.5 L1.5475,0.5 C0.6945,0.5 0,1.16033333 0,1.97186667 L0,13.0281333 C0,13.8396667 0.6945,14.5 1.5475,14.5 L8.3445,14.5 C8.369,14.5 8.39,14.4902 8.4135,14.4869333 C8.5535,14.5102667 8.702,14.4832 8.8195,14.3917333 L11.8195,12.0584 C11.9739518,11.9383708 12.0363888,11.7436933 11.978,11.5642 C11.9865,11.5310667 12,11.4998 12,11.4643333 L12,9.7806 C12,9.52286712 11.7761424,9.31393333 11.5,9.31393333 L11.5,9.31393333 Z M9.5,11.7 L10.719,11.7 L9,13.037 L9,12.1666667 C9,11.9089338 9.22385763,11.7 9.5,11.7 Z" id="形状"></path>
            </g>
        </g>
    </g>
</svg>