<?xml version="1.0" encoding="UTF-8"?>
<svg width="16px" height="16px" viewBox="0 0 16 16" version="1.1" xmlns="http://www.w3.org/2000/svg" xmlns:xlink="http://www.w3.org/1999/xlink">
    <title>10.图标/服务管理@3x</title>
    <g id="10.图标/服务管理" stroke="none" stroke-width="1" fill="none" fill-rule="evenodd">
        <g id="账户" fill-rule="nonzero">
            <rect id="矩形" fill="#000000" opacity="0" x="0" y="0" width="16" height="16"></rect>
            <path d="M13.33125,4.99921875 L13.33125,3.16617188 C13.33125,2.89007813 13.1074219,2.66625 12.8313281,2.66625 L3.16617188,2.66625 C2.89007813,2.66625 2.66625,2.89007813 2.66625,3.16617188 L2.66625,12.8313281 C2.66625,13.1074219 2.89007813,13.33125 3.16617188,13.33125 L12.8313281,13.33125 C13.1074219,13.33125 13.33125,13.1074219 13.33125,12.8313281 L13.33125,10.9982812 L8.6653125,10.9982812 C7.00871875,10.9982812 5.66578125,9.65534375 5.66578125,7.99875 C5.66578125,6.34215625 7.00871875,4.99921875 8.6653125,4.99921875 L13.33125,4.99921875 Z M13.33125,5.9990625 L8.6653125,5.9990625 C7.56092188,5.9990625 6.665625,6.89435938 6.665625,7.99875 C6.665625,9.10314062 7.56092188,9.9984375 8.6653125,9.9984375 L13.33125,9.9984375 L13.33125,5.9990625 Z M8.6653125,8.6653125 C8.2971875,8.6653125 7.99875,8.366875 7.99875,7.99875 C7.99875,7.630625 8.2971875,7.3321875 8.6653125,7.3321875 C9.0334375,7.3321875 9.331875,7.630625 9.331875,7.99875 C9.331875,8.366875 9.0334375,8.6653125 8.6653125,8.6653125 Z M3.16617187,1.66640625 L12.8313281,1.66640625 C13.659625,1.66640625 14.3310937,2.337875 14.3310937,3.16617187 L14.3310937,12.8313281 C14.3310937,13.659625 13.659625,14.3310937 12.8313281,14.3310937 L3.16617187,14.3310937 C2.337875,14.3310937 1.66640625,13.659625 1.66640625,12.8313281 L1.66640625,3.16617187 C1.66640625,2.337875 2.337875,1.66640625 3.16617187,1.66640625 Z" id="形状" fill="#FFFFFF"></path>
        </g>
    </g>
</svg>